<svg xmlns="http://www.w3.org/2000/svg" viewBox="0 0 512 512" role="img" aria-label="Lexiora">
  <defs>
    <linearGradient id="bg" x1="96" y1="48" x2="430" y2="470" gradientUnits="userSpaceOnUse">
      <stop offset="0" stop-color="#376b45"/>
      <stop offset="0.55" stop-color="#24472f"/>
      <stop offset="1" stop-color="#162c20"/>
    </linearGradient>
    <linearGradient id="page" x1="142" y1="124" x2="370" y2="392" gradientUnits="userSpaceOnUse">
      <stop offset="0" stop-color="#fffdf7"/>
      <stop offset="1" stop-color="#efe4cf"/>
    </linearGradient>
  </defs>
  <rect width="512" height="512" rx="104" fill="url(#bg)"/>
  <rect x="38" y="38" width="436" height="436" rx="84" fill="none" stroke="#e7c778" stroke-width="10" opacity="0.72"/>
  <path d="M255 145c-36-30-82-42-137-36-20 2-35 20-35 41v206c0 23 20 40 42 36 50-8 92 1 130 27V145z" fill="url(#page)"/>
  <path d="M257 145c36-30 82-42 137-36 20 2 35 20 35 41v206c0 23-20 40-42 36-50-8-92 1-130 27V145z" fill="url(#page)"/>
  <path d="M256 145v274" stroke="#24472f" stroke-width="10" stroke-linecap="round" opacity="0.38"/>
  <path d="M144 174c34-3 62 3 85 18M144 220c31-3 59 2 85 15M144 266c29-2 57 3 85 14" stroke="#b1502a" stroke-width="14" stroke-linecap="round" opacity="0.72"/>
  <path d="M292 173h68c14 0 25 11 25 25v84" fill="none" stroke="#24472f" stroke-width="30" stroke-linecap="round" stroke-linejoin="round"/>
  <path d="M292 173v141c0 24 19 43 43 43h62" fill="none" stroke="#24472f" stroke-width="30" stroke-linecap="round" stroke-linejoin="round"/>
  <path d="M371 105l10 24 25 9-25 9-10 25-10-25-24-9 24-9 10-24z" fill="#f0d58a"/>
  <path d="M256 419c-31-27-73-38-126-30M256 419c31-27 73-38 126-30" fill="none" stroke="#f7efd8" stroke-width="16" stroke-linecap="round" opacity="0.86"/>
</svg>
